<?xml version="1.0" encoding="iso-8859-1"?>
<!-- Uploaded to: SVG Repo, www.svgrepo.com, Generator: SVG Repo Mixer Tools -->
<!DOCTYPE svg PUBLIC "-//W3C//DTD SVG 1.1//EN" "http://www.w3.org/Graphics/SVG/1.1/DTD/svg11.dtd">
<svg fill="#000000" height="800px" width="800px" version="1.1" id="Capa_1" xmlns="http://www.w3.org/2000/svg" xmlns:xlink="http://www.w3.org/1999/xlink" 
	 viewBox="0 0 196.571 196.571" xml:space="preserve">
<g>
	<path d="M191.571,32.471h-9.084h-28.916h-25.278h-16.389h-38.5c-2.762,0-5,2.238-5,5s2.238,5,5,5h33.5v14.924c0,2.762,2.238,5,5,5
		h11.389v95.773h-11.981c-7.392,0-13.404,6.014-13.404,13.405c0,2.762,2.238,5,5,5h79.497c0.003,0,0.006-0.001,0.01-0.001h0.073
		c2.762,0,5-2.238,5-5v-8.404c0-2.762-2.238-5-5-5c-5.468,0-9.916-4.448-9.916-9.916V76.221c0-5.468,4.448-9.916,9.916-9.916
		c2.762,0,5-2.238,5-5V42.471h4.084c2.762,0,5-2.238,5-5S194.332,32.471,191.571,32.471z"/>
	<path d="M74.777,92.602h-59.05L9.983,24.575c-0.232-2.752-2.654-4.784-5.403-4.562c-2.751,0.232-4.794,2.651-4.562,5.403
		l7.005,82.957v63.199c0,2.762,2.238,5,5,5s5-2.238,5-5v-10.092h56.548v10.092c0,2.762,2.238,5,5,5s5-2.238,5-5v-58.412h1.766
		c0.008,0,0.015,0,0.02,0c2.762,0,5-2.238,5-5c0-0.185-0.01-0.366-0.029-0.546C90.039,99.288,83.173,92.602,74.777,92.602z
		 M73.571,151.482H17.023v-38.32h56.548V151.482z"/>
</g>
</svg>